<?xml version="1.0" encoding="UTF-8" standalone="no"?>
<!DOCTYPE svg PUBLIC "-//W3C//DTD SVG 1.1//EN" "http://www.w3.org/Graphics/SVG/1.1/DTD/svg11.dtd">
<svg width="100%" height="100%" viewBox="0 0 1922 137" version="1.1" xmlns="http://www.w3.org/2000/svg" xmlns:xlink="http://www.w3.org/1999/xlink" xml:space="preserve" xmlns:serif="http://www.serif.com/" style="fill-rule:evenodd;clip-rule:evenodd;stroke-linejoin:round;stroke-miterlimit:2;">
    <g transform="matrix(1,0,0,1,0.000379,0.000119)">
        <g transform="matrix(1,0,0,1,6.057621,-867.472119)">
            <g transform="matrix(1,0,0,1,-904,367)">
                <g transform="matrix(1,0,0,1,888.192,633.722)">
                    <path d="M173.75,-55.25C171,-8 115,-10.75 101.75,-19.5C88.5,-28.5 89,-43.25 84.75,-49L83.75,-50.5C79.5,-57.5 68,-68.75 47.25,-68.75C31,-68.75 11.75,-57.25 11.75,-37C11.75,-1.5 57.5,2.5 90.5,2.5C158.75,2.5 234.75,-20.25 234.75,-90.25L234.75,-130.75L9.75,-130.75L9.75,-112L173.75,-112L173.75,-94C173.75,-52.5 174.25,-66 173.75,-55.25Z"/>
                    <path d="M427,-88.5L420,-88.5L420,-102.25L372.75,-102.25L372.75,-88.5L261,-88.5L261,-74L372.75,-74L372.75,-64L338,-64L338,-38.25C338,-15.5 325.75,-7 318.75,-13.75C311.25,-20.5 312.25,-32 309.25,-36.5C309,-37 308.75,-37.25 308.75,-37.75C305.25,-43 296.75,-51.75 281.5,-51.75C269.5,-51.75 255,-42.75 255,-27C255,0 294.5,3.25 312.5,3.25C337.75,3.25 360.5,-4.75 372.75,-26.5L372.75,0.25L420,0.25L420,-74L427,-74C431,-74 434.25,-77.25 434.25,-81.25C434.25,-85.25 431,-88.5 427,-88.5Z"/>
                    <path d="M678,-133.25L606.75,-133.25C606.75,-132 606.75,-131 606.5,-130C604.25,-87 553.75,-50.75 539.5,-51.75C527.25,-53 526.75,-60.25 524.75,-67.75C522.5,-76 516.25,-82 510,-85L508.5,-85.75C501,-89 490.75,-91 479.25,-88.5C463,-84.75 450.25,-74.5 450.25,-54C450.25,-18.75 496,-21.5 529,-28.75C535.75,-30.5 542.25,-32.25 549,-34.25L549,0L610,0L610,-56.75C648.5,-76 678,-102 678,-133.25Z"/>
                    <path d="M811.75,-67.25L811.75,-130.75L750.5,-130.75L750.5,-104.75C750.5,-84 767.25,-67.25 788,-67.25L811.75,-67.25ZM700,-37C700,-1.5 746,2.5 779,2.5C847,2.5 923.25,-20.25 923.25,-90.25L923.25,-130.75L862,-130.75L862,-94C862,-52.5 862.5,-66 862,-55.25C859.5,-8 803.25,-10.75 790,-19.5C776.75,-28.5 777.25,-43.25 773,-49L772.25,-50.5C767.75,-57.5 756.25,-68.75 735.75,-68.75C719.5,-68.75 700,-57.25 700,-37Z"/>
                    <path d="M1112,-130.75L1112,-94C1112,-52.5 1112.5,-66 1112,-55.25C1109.5,-8 1053.25,-10.75 1040,-19.5C1026.75,-28.5 1027.25,-43.25 1023,-49L1022.25,-50.5C1017.75,-57.5 1006.25,-68.75 985.75,-68.75C969.5,-68.75 950,-57.25 950,-37C950,-1.5 996,2.5 1029,2.5C1097,2.5 1173.25,-20.25 1173.25,-90.25L1173.25,-130.75L1112,-130.75ZM954,-112L1034.75,-112C1040,-112 1044,-116 1044,-121.25C1044,-126.5 1040,-130.75 1034.75,-130.75L954,-130.75L954,-112Z"/>
                </g>
                <g transform="matrix(1,0,0,1,2321.442,633.722)">
                    <path d="M21.25,-97L10.5,0L71.75,0L82.5,-97L173.75,-97L173.75,-87.5C173.75,-71.5 174.5,-58.25 173.75,-47L173.75,-44.5C173.75,-21.25 173.25,-13.5 166.5,-13.75C154.5,-14.25 158.75,-35.5 153.25,-45.25L151.75,-47.5C147.25,-54.5 137.25,-65.75 117.5,-65.75C102,-65.75 85.25,-52.75 89.25,-32.5C96.5,1.5 146,3.5 163.25,3.5C201.5,3.5 235,-6.75 235,-44.5L235,-115.75L84.5,-115.75L86.5,-133.25L25.25,-133.25L23.25,-115.75L9.75,-115.75L9.75,-97L21.25,-97Z"/>
                    <path d="M497.75,-36.25C495.25,-55 474.25,-61.25 455.5,-51.5C439.5,-43 435.25,-18.75 404.75,-18.75L397,-18.75L397,-91C397,-113.25 416.75,-114.5 416.75,-114.5L452.5,-114.5C457.75,-114.5 462,-118.5 462,-123.75C462,-129 457.75,-133.25 452.5,-133.25L268,-133.25L268,-114.5L335.75,-114.5L335.75,-18.75L252.5,-18.75L252.5,0L454.5,0C476.75,0 501,-13 497.75,-36.25Z"/>
                </g>
            </g>
        </g>
    </g>
</svg>
